<mxfile host="app.diagrams.net" modified="2021-11-13T08:48:25.611Z" agent="5.0 (Macintosh)" etag="MzEb6wU-QrXN3VCaNXAE" version="15.7.1" type="github">
  <diagram id="C5RBs43oDa-KdzZeNtuy" name="Page-1">
    <mxGraphModel dx="2096" dy="1193" grid="1" gridSize="10" guides="1" tooltips="1" connect="1" arrows="1" fold="1" page="1" pageScale="1" pageWidth="1654" pageHeight="1169" math="0" shadow="0">
      <root>
        <mxCell id="WIyWlLk6GJQsqaUBKTNV-0" />
        <mxCell id="WIyWlLk6GJQsqaUBKTNV-1" parent="WIyWlLk6GJQsqaUBKTNV-0" />
        <mxCell id="RpjYzm1VdP1euKCkJrFf-23" value="&lt;h2&gt;Wallet_List&lt;/h2&gt;" style="rounded=1;whiteSpace=wrap;html=1;" vertex="1" parent="WIyWlLk6GJQsqaUBKTNV-1">
          <mxGeometry x="280" y="2800" width="340" height="240" as="geometry" />
        </mxCell>
        <mxCell id="RpjYzm1VdP1euKCkJrFf-22" value="&lt;h2&gt;Wallet&lt;/h2&gt;" style="rounded=1;whiteSpace=wrap;html=1;" vertex="1" parent="WIyWlLk6GJQsqaUBKTNV-1">
          <mxGeometry x="1020" y="2800" width="460" height="240" as="geometry" />
        </mxCell>
        <mxCell id="PYnlJR85cqrQ8jzhMH3u-26" value="&lt;div align=&quot;center&quot;&gt;add newWallet&lt;/div&gt;" style="ellipse;whiteSpace=wrap;html=1;fillColor=#99CCFF;align=center;" parent="WIyWlLk6GJQsqaUBKTNV-1" vertex="1">
          <mxGeometry x="470" y="1410" width="120" height="80" as="geometry" />
        </mxCell>
        <mxCell id="PYnlJR85cqrQ8jzhMH3u-14" value="&lt;div align=&quot;left&quot;&gt;walletCard&lt;/div&gt;Full" style="rounded=0;whiteSpace=wrap;html=1;align=left;fillColor=#99CCFF;" parent="WIyWlLk6GJQsqaUBKTNV-1" vertex="1">
          <mxGeometry x="345" y="1660" width="210" height="210" as="geometry" />
        </mxCell>
        <mxCell id="bUmuCnkTtCqIRELtBbXz-1" value="" style="ellipse;whiteSpace=wrap;html=1;fillColor=#99CCFF;" parent="WIyWlLk6GJQsqaUBKTNV-1" vertex="1">
          <mxGeometry x="390" y="30" width="120" height="80" as="geometry" />
        </mxCell>
        <mxCell id="bUmuCnkTtCqIRELtBbXz-2" value="Logical Decisions" style="text;html=1;align=center;verticalAlign=middle;resizable=0;points=[];autosize=1;strokeColor=none;fillColor=none;" parent="WIyWlLk6GJQsqaUBKTNV-1" vertex="1">
          <mxGeometry x="165" y="60" width="110" height="20" as="geometry" />
        </mxCell>
        <mxCell id="bUmuCnkTtCqIRELtBbXz-3" value="UI Screen" style="text;html=1;align=center;verticalAlign=middle;resizable=0;points=[];autosize=1;strokeColor=none;fillColor=none;" parent="WIyWlLk6GJQsqaUBKTNV-1" vertex="1">
          <mxGeometry x="535" y="60" width="70" height="20" as="geometry" />
        </mxCell>
        <mxCell id="bUmuCnkTtCqIRELtBbXz-44" value="" style="rounded=1;whiteSpace=wrap;html=1;" parent="WIyWlLk6GJQsqaUBKTNV-1" vertex="1">
          <mxGeometry x="40" y="40" width="120" height="60" as="geometry" />
        </mxCell>
        <mxCell id="eP995ulbHq9WS8gDX0PH-6" style="edgeStyle=none;rounded=0;orthogonalLoop=1;jettySize=auto;html=1;" parent="WIyWlLk6GJQsqaUBKTNV-1" source="nm4fV4JeuhOYRiYcyH4O-1" target="nm4fV4JeuhOYRiYcyH4O-52" edge="1">
          <mxGeometry relative="1" as="geometry" />
        </mxCell>
        <mxCell id="eP995ulbHq9WS8gDX0PH-7" value="choice of walltes" style="edgeStyle=none;rounded=0;orthogonalLoop=1;jettySize=auto;html=1;" parent="WIyWlLk6GJQsqaUBKTNV-1" source="nm4fV4JeuhOYRiYcyH4O-1" target="eP995ulbHq9WS8gDX0PH-1" edge="1">
          <mxGeometry relative="1" as="geometry" />
        </mxCell>
        <mxCell id="eP995ulbHq9WS8gDX0PH-8" style="edgeStyle=none;rounded=0;orthogonalLoop=1;jettySize=auto;html=1;exitX=1;exitY=1;exitDx=0;exitDy=0;" parent="WIyWlLk6GJQsqaUBKTNV-1" source="nm4fV4JeuhOYRiYcyH4O-1" target="eP995ulbHq9WS8gDX0PH-0" edge="1">
          <mxGeometry relative="1" as="geometry" />
        </mxCell>
        <mxCell id="eP995ulbHq9WS8gDX0PH-27" style="edgeStyle=none;rounded=0;orthogonalLoop=1;jettySize=auto;html=1;" parent="WIyWlLk6GJQsqaUBKTNV-1" source="nm4fV4JeuhOYRiYcyH4O-1" target="eP995ulbHq9WS8gDX0PH-25" edge="1">
          <mxGeometry relative="1" as="geometry" />
        </mxCell>
        <mxCell id="nm4fV4JeuhOYRiYcyH4O-1" value="&lt;div&gt;&lt;br&gt;&lt;/div&gt;&lt;div&gt;HomeScreen&lt;br&gt;&lt;/div&gt;&lt;div&gt;displayList&lt;/div&gt;&lt;div&gt;all Wallets&lt;br&gt;&lt;/div&gt;" style="ellipse;whiteSpace=wrap;html=1;fillColor=#99CCFF;" parent="WIyWlLk6GJQsqaUBKTNV-1" vertex="1">
          <mxGeometry x="270" y="340" width="120" height="80" as="geometry" />
        </mxCell>
        <mxCell id="nm4fV4JeuhOYRiYcyH4O-31" value="" style="edgeStyle=orthogonalEdgeStyle;rounded=0;orthogonalLoop=1;jettySize=auto;html=1;" parent="WIyWlLk6GJQsqaUBKTNV-1" target="nm4fV4JeuhOYRiYcyH4O-3" edge="1">
          <mxGeometry relative="1" as="geometry">
            <mxPoint x="730" y="380" as="sourcePoint" />
          </mxGeometry>
        </mxCell>
        <mxCell id="nm4fV4JeuhOYRiYcyH4O-3" value="&lt;div&gt;select&lt;/div&gt;&lt;div&gt;CurrencyFrom&lt;/div&gt;" style="rounded=1;whiteSpace=wrap;html=1;" parent="WIyWlLk6GJQsqaUBKTNV-1" vertex="1">
          <mxGeometry x="820" y="350" width="120" height="60" as="geometry" />
        </mxCell>
        <mxCell id="nm4fV4JeuhOYRiYcyH4O-25" value="enter wallet name" style="edgeStyle=orthogonalEdgeStyle;rounded=0;orthogonalLoop=1;jettySize=auto;html=1;entryX=0.5;entryY=0;entryDx=0;entryDy=0;" parent="WIyWlLk6GJQsqaUBKTNV-1" source="nm4fV4JeuhOYRiYcyH4O-4" target="nm4fV4JeuhOYRiYcyH4O-24" edge="1">
          <mxGeometry relative="1" as="geometry" />
        </mxCell>
        <mxCell id="nm4fV4JeuhOYRiYcyH4O-4" value="&lt;div&gt;input&lt;/div&gt;&lt;div&gt;walletName&lt;br&gt;&lt;/div&gt;" style="rounded=1;whiteSpace=wrap;html=1;" parent="WIyWlLk6GJQsqaUBKTNV-1" vertex="1">
          <mxGeometry x="1220" y="350" width="120" height="60" as="geometry" />
        </mxCell>
        <mxCell id="nm4fV4JeuhOYRiYcyH4O-18" style="edgeStyle=orthogonalEdgeStyle;rounded=0;orthogonalLoop=1;jettySize=auto;html=1;entryX=0.5;entryY=0;entryDx=0;entryDy=0;" parent="WIyWlLk6GJQsqaUBKTNV-1" source="nm4fV4JeuhOYRiYcyH4O-5" target="nm4fV4JeuhOYRiYcyH4O-14" edge="1">
          <mxGeometry relative="1" as="geometry" />
        </mxCell>
        <mxCell id="nm4fV4JeuhOYRiYcyH4O-19" value="select upto 6" style="edgeLabel;html=1;align=center;verticalAlign=middle;resizable=0;points=[];" parent="nm4fV4JeuhOYRiYcyH4O-18" vertex="1" connectable="0">
          <mxGeometry x="-0.2019" y="-1" relative="1" as="geometry">
            <mxPoint as="offset" />
          </mxGeometry>
        </mxCell>
        <mxCell id="nm4fV4JeuhOYRiYcyH4O-5" value="&lt;div&gt;select&lt;/div&gt;&lt;div&gt;CurrencyTo&lt;/div&gt;" style="rounded=1;whiteSpace=wrap;html=1;" parent="WIyWlLk6GJQsqaUBKTNV-1" vertex="1">
          <mxGeometry x="1020" y="350" width="120" height="60" as="geometry" />
        </mxCell>
        <mxCell id="nm4fV4JeuhOYRiYcyH4O-28" style="edgeStyle=orthogonalEdgeStyle;rounded=0;orthogonalLoop=1;jettySize=auto;html=1;entryX=0.5;entryY=0;entryDx=0;entryDy=0;" parent="WIyWlLk6GJQsqaUBKTNV-1" source="nm4fV4JeuhOYRiYcyH4O-8" target="nm4fV4JeuhOYRiYcyH4O-27" edge="1">
          <mxGeometry relative="1" as="geometry" />
        </mxCell>
        <mxCell id="nm4fV4JeuhOYRiYcyH4O-30" value="select color" style="edgeLabel;html=1;align=center;verticalAlign=middle;resizable=0;points=[];" parent="nm4fV4JeuhOYRiYcyH4O-28" vertex="1" connectable="0">
          <mxGeometry x="-0.0165" y="1" relative="1" as="geometry">
            <mxPoint as="offset" />
          </mxGeometry>
        </mxCell>
        <mxCell id="nm4fV4JeuhOYRiYcyH4O-33" style="edgeStyle=orthogonalEdgeStyle;rounded=0;orthogonalLoop=1;jettySize=auto;html=1;entryX=1;entryY=0;entryDx=0;entryDy=0;exitX=1;exitY=0.5;exitDx=0;exitDy=0;" parent="WIyWlLk6GJQsqaUBKTNV-1" source="eP995ulbHq9WS8gDX0PH-32" target="nm4fV4JeuhOYRiYcyH4O-1" edge="1">
          <mxGeometry relative="1" as="geometry">
            <Array as="points">
              <mxPoint x="1590" y="620" />
              <mxPoint x="1590" y="320" />
              <mxPoint x="372" y="320" />
            </Array>
          </mxGeometry>
        </mxCell>
        <mxCell id="nm4fV4JeuhOYRiYcyH4O-50" value="confirm" style="edgeLabel;html=1;align=center;verticalAlign=middle;resizable=0;points=[];fillColor=none;" parent="nm4fV4JeuhOYRiYcyH4O-33" vertex="1" connectable="0">
          <mxGeometry x="-0.8429" y="1" relative="1" as="geometry">
            <mxPoint as="offset" />
          </mxGeometry>
        </mxCell>
        <mxCell id="nm4fV4JeuhOYRiYcyH4O-8" value="&lt;div&gt;select&lt;/div&gt;&lt;div&gt;walletColor&lt;br&gt;&lt;/div&gt;" style="rounded=1;whiteSpace=wrap;html=1;" parent="WIyWlLk6GJQsqaUBKTNV-1" vertex="1">
          <mxGeometry x="1420" y="350" width="120" height="60" as="geometry" />
        </mxCell>
        <mxCell id="nm4fV4JeuhOYRiYcyH4O-9" value="" style="endArrow=classic;html=1;rounded=0;exitX=1;exitY=0.5;exitDx=0;exitDy=0;entryX=0;entryY=0.5;entryDx=0;entryDy=0;startArrow=none;" parent="WIyWlLk6GJQsqaUBKTNV-1" source="eP995ulbHq9WS8gDX0PH-25" target="nm4fV4JeuhOYRiYcyH4O-3" edge="1">
          <mxGeometry width="50" height="50" relative="1" as="geometry">
            <mxPoint x="610" y="380" as="sourcePoint" />
            <mxPoint x="1300" y="530" as="targetPoint" />
          </mxGeometry>
        </mxCell>
        <mxCell id="nm4fV4JeuhOYRiYcyH4O-21" style="edgeStyle=orthogonalEdgeStyle;rounded=0;orthogonalLoop=1;jettySize=auto;html=1;entryX=0;entryY=0.5;entryDx=0;entryDy=0;" parent="WIyWlLk6GJQsqaUBKTNV-1" source="nm4fV4JeuhOYRiYcyH4O-10" target="nm4fV4JeuhOYRiYcyH4O-5" edge="1">
          <mxGeometry relative="1" as="geometry" />
        </mxCell>
        <mxCell id="nm4fV4JeuhOYRiYcyH4O-22" value="confirm" style="edgeLabel;html=1;align=center;verticalAlign=middle;resizable=0;points=[];" parent="nm4fV4JeuhOYRiYcyH4O-21" vertex="1" connectable="0">
          <mxGeometry x="-0.0948" y="-1" relative="1" as="geometry">
            <mxPoint as="offset" />
          </mxGeometry>
        </mxCell>
        <mxCell id="nm4fV4JeuhOYRiYcyH4O-10" value="&lt;div&gt;display List&amp;lt;currency&amp;gt;&lt;/div&gt;" style="ellipse;whiteSpace=wrap;html=1;fillColor=#CCFF99;" parent="WIyWlLk6GJQsqaUBKTNV-1" vertex="1">
          <mxGeometry x="820" y="460" width="120" height="80" as="geometry" />
        </mxCell>
        <mxCell id="nm4fV4JeuhOYRiYcyH4O-11" value="" style="endArrow=classic;html=1;rounded=0;exitX=0.5;exitY=1;exitDx=0;exitDy=0;" parent="WIyWlLk6GJQsqaUBKTNV-1" source="nm4fV4JeuhOYRiYcyH4O-3" target="nm4fV4JeuhOYRiYcyH4O-10" edge="1">
          <mxGeometry width="50" height="50" relative="1" as="geometry">
            <mxPoint x="750" y="500" as="sourcePoint" />
            <mxPoint x="800" y="450" as="targetPoint" />
          </mxGeometry>
        </mxCell>
        <mxCell id="nm4fV4JeuhOYRiYcyH4O-15" value="select 1" style="edgeLabel;html=1;align=center;verticalAlign=middle;resizable=0;points=[];" parent="nm4fV4JeuhOYRiYcyH4O-11" vertex="1" connectable="0">
          <mxGeometry x="-0.0495" y="1" relative="1" as="geometry">
            <mxPoint as="offset" />
          </mxGeometry>
        </mxCell>
        <mxCell id="nm4fV4JeuhOYRiYcyH4O-20" style="edgeStyle=orthogonalEdgeStyle;rounded=0;orthogonalLoop=1;jettySize=auto;html=1;entryX=0;entryY=0.5;entryDx=0;entryDy=0;exitX=1;exitY=0.5;exitDx=0;exitDy=0;" parent="WIyWlLk6GJQsqaUBKTNV-1" source="eP995ulbHq9WS8gDX0PH-30" target="nm4fV4JeuhOYRiYcyH4O-4" edge="1">
          <mxGeometry relative="1" as="geometry" />
        </mxCell>
        <mxCell id="nm4fV4JeuhOYRiYcyH4O-23" value="confirm" style="edgeLabel;html=1;align=center;verticalAlign=middle;resizable=0;points=[];fillColor=#CCFF99;" parent="nm4fV4JeuhOYRiYcyH4O-20" vertex="1" connectable="0">
          <mxGeometry x="-0.1233" y="1" relative="1" as="geometry">
            <mxPoint as="offset" />
          </mxGeometry>
        </mxCell>
        <mxCell id="eP995ulbHq9WS8gDX0PH-31" style="edgeStyle=none;rounded=0;orthogonalLoop=1;jettySize=auto;html=1;entryX=0.5;entryY=0;entryDx=0;entryDy=0;" parent="WIyWlLk6GJQsqaUBKTNV-1" source="nm4fV4JeuhOYRiYcyH4O-14" target="eP995ulbHq9WS8gDX0PH-30" edge="1">
          <mxGeometry relative="1" as="geometry" />
        </mxCell>
        <mxCell id="nm4fV4JeuhOYRiYcyH4O-14" value="display List&amp;lt;currency&amp;gt;" style="ellipse;whiteSpace=wrap;html=1;fillColor=#CCFF99;" parent="WIyWlLk6GJQsqaUBKTNV-1" vertex="1">
          <mxGeometry x="1020" y="460" width="120" height="80" as="geometry" />
        </mxCell>
        <mxCell id="nm4fV4JeuhOYRiYcyH4O-26" style="edgeStyle=orthogonalEdgeStyle;rounded=0;orthogonalLoop=1;jettySize=auto;html=1;entryX=0;entryY=0.5;entryDx=0;entryDy=0;" parent="WIyWlLk6GJQsqaUBKTNV-1" source="nm4fV4JeuhOYRiYcyH4O-24" target="nm4fV4JeuhOYRiYcyH4O-8" edge="1">
          <mxGeometry relative="1" as="geometry" />
        </mxCell>
        <mxCell id="nm4fV4JeuhOYRiYcyH4O-29" value="confirm" style="edgeLabel;html=1;align=center;verticalAlign=middle;resizable=0;points=[];" parent="nm4fV4JeuhOYRiYcyH4O-26" vertex="1" connectable="0">
          <mxGeometry x="-0.0165" y="-1" relative="1" as="geometry">
            <mxPoint as="offset" />
          </mxGeometry>
        </mxCell>
        <mxCell id="nm4fV4JeuhOYRiYcyH4O-24" value="&lt;div&gt;display text &lt;br&gt;&lt;/div&gt;&lt;div&gt;entry field&lt;/div&gt;" style="ellipse;whiteSpace=wrap;html=1;fillColor=#CCFF99;" parent="WIyWlLk6GJQsqaUBKTNV-1" vertex="1">
          <mxGeometry x="1220" y="460" width="120" height="80" as="geometry" />
        </mxCell>
        <mxCell id="eP995ulbHq9WS8gDX0PH-33" style="edgeStyle=none;rounded=0;orthogonalLoop=1;jettySize=auto;html=1;" parent="WIyWlLk6GJQsqaUBKTNV-1" source="nm4fV4JeuhOYRiYcyH4O-27" target="eP995ulbHq9WS8gDX0PH-32" edge="1">
          <mxGeometry relative="1" as="geometry" />
        </mxCell>
        <mxCell id="nm4fV4JeuhOYRiYcyH4O-27" value="&lt;div&gt;display &lt;br&gt;&lt;/div&gt;&lt;div&gt;color options&lt;br&gt;&lt;/div&gt;" style="ellipse;whiteSpace=wrap;html=1;fillColor=#CCFF99;" parent="WIyWlLk6GJQsqaUBKTNV-1" vertex="1">
          <mxGeometry x="1420" y="460" width="120" height="80" as="geometry" />
        </mxCell>
        <mxCell id="eP995ulbHq9WS8gDX0PH-21" value="enter value - convert from" style="edgeStyle=none;rounded=0;orthogonalLoop=1;jettySize=auto;html=1;entryX=0.5;entryY=0;entryDx=0;entryDy=0;" parent="WIyWlLk6GJQsqaUBKTNV-1" source="nm4fV4JeuhOYRiYcyH4O-39" target="nm4fV4JeuhOYRiYcyH4O-41" edge="1">
          <mxGeometry relative="1" as="geometry" />
        </mxCell>
        <mxCell id="nm4fV4JeuhOYRiYcyH4O-39" value="&lt;div&gt;display&lt;/div&gt;&lt;div&gt;numeric keypad&lt;br&gt;&lt;/div&gt;" style="ellipse;whiteSpace=wrap;html=1;" parent="WIyWlLk6GJQsqaUBKTNV-1" vertex="1">
          <mxGeometry x="470" y="840" width="120" height="80" as="geometry" />
        </mxCell>
        <mxCell id="eP995ulbHq9WS8gDX0PH-22" style="edgeStyle=none;rounded=0;orthogonalLoop=1;jettySize=auto;html=1;entryX=0.5;entryY=1;entryDx=0;entryDy=0;" parent="WIyWlLk6GJQsqaUBKTNV-1" source="nm4fV4JeuhOYRiYcyH4O-41" target="eP995ulbHq9WS8gDX0PH-13" edge="1">
          <mxGeometry relative="1" as="geometry" />
        </mxCell>
        <mxCell id="eP995ulbHq9WS8gDX0PH-23" style="edgeStyle=none;rounded=0;orthogonalLoop=1;jettySize=auto;html=1;entryX=0.5;entryY=1;entryDx=0;entryDy=0;" parent="WIyWlLk6GJQsqaUBKTNV-1" source="nm4fV4JeuhOYRiYcyH4O-41" target="eP995ulbHq9WS8gDX0PH-14" edge="1">
          <mxGeometry relative="1" as="geometry" />
        </mxCell>
        <mxCell id="eP995ulbHq9WS8gDX0PH-24" style="edgeStyle=none;rounded=0;orthogonalLoop=1;jettySize=auto;html=1;entryX=0.5;entryY=1;entryDx=0;entryDy=0;" parent="WIyWlLk6GJQsqaUBKTNV-1" source="nm4fV4JeuhOYRiYcyH4O-41" target="eP995ulbHq9WS8gDX0PH-15" edge="1">
          <mxGeometry relative="1" as="geometry" />
        </mxCell>
        <mxCell id="nm4fV4JeuhOYRiYcyH4O-41" value="&lt;div&gt;convert &lt;br&gt;&lt;/div&gt;&lt;div&gt;from &amp;gt; to&lt;br&gt;&lt;/div&gt;" style="rounded=1;whiteSpace=wrap;html=1;" parent="WIyWlLk6GJQsqaUBKTNV-1" vertex="1">
          <mxGeometry x="470" y="980" width="120" height="60" as="geometry" />
        </mxCell>
        <mxCell id="nm4fV4JeuhOYRiYcyH4O-47" style="edgeStyle=orthogonalEdgeStyle;rounded=0;orthogonalLoop=1;jettySize=auto;html=1;entryX=0.5;entryY=0;entryDx=0;entryDy=0;" parent="WIyWlLk6GJQsqaUBKTNV-1" source="nm4fV4JeuhOYRiYcyH4O-46" target="nm4fV4JeuhOYRiYcyH4O-1" edge="1">
          <mxGeometry relative="1" as="geometry" />
        </mxCell>
        <mxCell id="nm4fV4JeuhOYRiYcyH4O-46" value="open APP" style="rounded=1;whiteSpace=wrap;html=1;" parent="WIyWlLk6GJQsqaUBKTNV-1" vertex="1">
          <mxGeometry x="430" y="190" width="120" height="60" as="geometry" />
        </mxCell>
        <mxCell id="eP995ulbHq9WS8gDX0PH-3" style="rounded=0;orthogonalLoop=1;jettySize=auto;html=1;entryX=0.25;entryY=0;entryDx=0;entryDy=0;" parent="WIyWlLk6GJQsqaUBKTNV-1" source="nm4fV4JeuhOYRiYcyH4O-52" target="eP995ulbHq9WS8gDX0PH-2" edge="1">
          <mxGeometry relative="1" as="geometry" />
        </mxCell>
        <mxCell id="nm4fV4JeuhOYRiYcyH4O-52" value="wallet card A" style="ellipse;whiteSpace=wrap;html=1;fillColor=#CCFF99;" parent="WIyWlLk6GJQsqaUBKTNV-1" vertex="1">
          <mxGeometry x="125" y="460" width="120" height="80" as="geometry" />
        </mxCell>
        <mxCell id="eP995ulbHq9WS8gDX0PH-5" style="edgeStyle=none;rounded=0;orthogonalLoop=1;jettySize=auto;html=1;entryX=0.75;entryY=0;entryDx=0;entryDy=0;" parent="WIyWlLk6GJQsqaUBKTNV-1" source="eP995ulbHq9WS8gDX0PH-0" target="eP995ulbHq9WS8gDX0PH-2" edge="1">
          <mxGeometry relative="1" as="geometry" />
        </mxCell>
        <mxCell id="eP995ulbHq9WS8gDX0PH-0" value="wallet card C" style="ellipse;whiteSpace=wrap;html=1;fillColor=#CCFF99;" parent="WIyWlLk6GJQsqaUBKTNV-1" vertex="1">
          <mxGeometry x="415" y="460" width="120" height="80" as="geometry" />
        </mxCell>
        <mxCell id="eP995ulbHq9WS8gDX0PH-4" style="edgeStyle=none;rounded=0;orthogonalLoop=1;jettySize=auto;html=1;entryX=0.5;entryY=0;entryDx=0;entryDy=0;" parent="WIyWlLk6GJQsqaUBKTNV-1" source="eP995ulbHq9WS8gDX0PH-1" target="eP995ulbHq9WS8gDX0PH-2" edge="1">
          <mxGeometry relative="1" as="geometry">
            <mxPoint x="335" y="610" as="targetPoint" />
          </mxGeometry>
        </mxCell>
        <mxCell id="eP995ulbHq9WS8gDX0PH-1" value="wallet card B" style="ellipse;whiteSpace=wrap;html=1;fillColor=#CCFF99;" parent="WIyWlLk6GJQsqaUBKTNV-1" vertex="1">
          <mxGeometry x="270" y="460" width="120" height="80" as="geometry" />
        </mxCell>
        <mxCell id="eP995ulbHq9WS8gDX0PH-10" style="edgeStyle=none;rounded=0;orthogonalLoop=1;jettySize=auto;html=1;entryX=0.5;entryY=0;entryDx=0;entryDy=0;" parent="WIyWlLk6GJQsqaUBKTNV-1" source="eP995ulbHq9WS8gDX0PH-2" target="eP995ulbHq9WS8gDX0PH-9" edge="1">
          <mxGeometry relative="1" as="geometry" />
        </mxCell>
        <mxCell id="eP995ulbHq9WS8gDX0PH-11" value="open wallet" style="edgeLabel;html=1;align=center;verticalAlign=middle;resizable=0;points=[];" parent="eP995ulbHq9WS8gDX0PH-10" vertex="1" connectable="0">
          <mxGeometry x="-0.04" y="1" relative="1" as="geometry">
            <mxPoint as="offset" />
          </mxGeometry>
        </mxCell>
        <mxCell id="eP995ulbHq9WS8gDX0PH-2" value="tap to select and enter wallet" style="rounded=1;whiteSpace=wrap;html=1;" parent="WIyWlLk6GJQsqaUBKTNV-1" vertex="1">
          <mxGeometry x="270" y="620" width="120" height="60" as="geometry" />
        </mxCell>
        <mxCell id="eP995ulbHq9WS8gDX0PH-16" value="displays" style="edgeStyle=none;rounded=0;orthogonalLoop=1;jettySize=auto;html=1;entryX=0;entryY=0.5;entryDx=0;entryDy=0;" parent="WIyWlLk6GJQsqaUBKTNV-1" source="eP995ulbHq9WS8gDX0PH-9" target="eP995ulbHq9WS8gDX0PH-12" edge="1">
          <mxGeometry relative="1" as="geometry" />
        </mxCell>
        <mxCell id="eP995ulbHq9WS8gDX0PH-9" value="&lt;div&gt;WalletScreen&lt;br&gt;&lt;/div&gt;&lt;div&gt;wallet card A&lt;/div&gt;" style="ellipse;whiteSpace=wrap;html=1;fillColor=#99CCFF;" parent="WIyWlLk6GJQsqaUBKTNV-1" vertex="1">
          <mxGeometry x="270" y="730" width="120" height="80" as="geometry" />
        </mxCell>
        <mxCell id="eP995ulbHq9WS8gDX0PH-17" style="edgeStyle=none;rounded=0;orthogonalLoop=1;jettySize=auto;html=1;entryX=0.5;entryY=0;entryDx=0;entryDy=0;" parent="WIyWlLk6GJQsqaUBKTNV-1" source="eP995ulbHq9WS8gDX0PH-12" target="eP995ulbHq9WS8gDX0PH-13" edge="1">
          <mxGeometry relative="1" as="geometry" />
        </mxCell>
        <mxCell id="eP995ulbHq9WS8gDX0PH-18" style="edgeStyle=none;rounded=0;orthogonalLoop=1;jettySize=auto;html=1;entryX=0.5;entryY=0;entryDx=0;entryDy=0;" parent="WIyWlLk6GJQsqaUBKTNV-1" source="eP995ulbHq9WS8gDX0PH-12" target="eP995ulbHq9WS8gDX0PH-14" edge="1">
          <mxGeometry relative="1" as="geometry" />
        </mxCell>
        <mxCell id="eP995ulbHq9WS8gDX0PH-19" style="edgeStyle=none;rounded=0;orthogonalLoop=1;jettySize=auto;html=1;entryX=0.5;entryY=0;entryDx=0;entryDy=0;" parent="WIyWlLk6GJQsqaUBKTNV-1" source="eP995ulbHq9WS8gDX0PH-12" target="eP995ulbHq9WS8gDX0PH-15" edge="1">
          <mxGeometry relative="1" as="geometry" />
        </mxCell>
        <mxCell id="eP995ulbHq9WS8gDX0PH-20" style="edgeStyle=none;rounded=0;orthogonalLoop=1;jettySize=auto;html=1;entryX=0.5;entryY=0;entryDx=0;entryDy=0;" parent="WIyWlLk6GJQsqaUBKTNV-1" source="eP995ulbHq9WS8gDX0PH-12" target="nm4fV4JeuhOYRiYcyH4O-39" edge="1">
          <mxGeometry relative="1" as="geometry" />
        </mxCell>
        <mxCell id="eP995ulbHq9WS8gDX0PH-12" value="&lt;div&gt;wallet card A&lt;/div&gt;primaryCard" style="ellipse;whiteSpace=wrap;html=1;fillColor=#CCFF99;" parent="WIyWlLk6GJQsqaUBKTNV-1" vertex="1">
          <mxGeometry x="470" y="730" width="120" height="80" as="geometry" />
        </mxCell>
        <mxCell id="eP995ulbHq9WS8gDX0PH-13" value="&lt;div&gt;wallet card A&lt;/div&gt;altCard A" style="ellipse;whiteSpace=wrap;html=1;fillColor=#CCFF99;" parent="WIyWlLk6GJQsqaUBKTNV-1" vertex="1">
          <mxGeometry x="680" y="840" width="120" height="80" as="geometry" />
        </mxCell>
        <mxCell id="eP995ulbHq9WS8gDX0PH-14" value="&lt;div&gt;wallet card A&lt;/div&gt;altCard B" style="ellipse;whiteSpace=wrap;html=1;fillColor=#CCFF99;" parent="WIyWlLk6GJQsqaUBKTNV-1" vertex="1">
          <mxGeometry x="800" y="840" width="120" height="80" as="geometry" />
        </mxCell>
        <mxCell id="eP995ulbHq9WS8gDX0PH-15" value="&lt;div&gt;wallet card A&lt;/div&gt;altCard C" style="ellipse;whiteSpace=wrap;html=1;fillColor=#CCFF99;" parent="WIyWlLk6GJQsqaUBKTNV-1" vertex="1">
          <mxGeometry x="920" y="840" width="120" height="80" as="geometry" />
        </mxCell>
        <mxCell id="eP995ulbHq9WS8gDX0PH-25" value="NewWalletScreen" style="ellipse;whiteSpace=wrap;html=1;fillColor=#99CCFF;" parent="WIyWlLk6GJQsqaUBKTNV-1" vertex="1">
          <mxGeometry x="590" y="340" width="120" height="80" as="geometry" />
        </mxCell>
        <mxCell id="eP995ulbHq9WS8gDX0PH-28" value="" style="ellipse;whiteSpace=wrap;html=1;fillColor=#CCFF99;" parent="WIyWlLk6GJQsqaUBKTNV-1" vertex="1">
          <mxGeometry x="660" y="30" width="120" height="80" as="geometry" />
        </mxCell>
        <mxCell id="eP995ulbHq9WS8gDX0PH-29" value="UI Component" style="text;html=1;align=center;verticalAlign=middle;resizable=0;points=[];autosize=1;strokeColor=none;fillColor=none;" parent="WIyWlLk6GJQsqaUBKTNV-1" vertex="1">
          <mxGeometry x="795" y="60" width="90" height="20" as="geometry" />
        </mxCell>
        <mxCell id="eP995ulbHq9WS8gDX0PH-30" value="&lt;div&gt;select upto &lt;br&gt;&lt;/div&gt;&lt;div&gt;6 currencies&lt;br&gt;&lt;/div&gt;" style="rounded=1;whiteSpace=wrap;html=1;" parent="WIyWlLk6GJQsqaUBKTNV-1" vertex="1">
          <mxGeometry x="1020" y="600" width="120" height="60" as="geometry" />
        </mxCell>
        <mxCell id="eP995ulbHq9WS8gDX0PH-32" value="&lt;div&gt;select &lt;br&gt;&lt;/div&gt;wallet&lt;div&gt;color scheme&lt;br&gt;&lt;/div&gt;" style="rounded=1;whiteSpace=wrap;html=1;" parent="WIyWlLk6GJQsqaUBKTNV-1" vertex="1">
          <mxGeometry x="1420" y="590" width="120" height="60" as="geometry" />
        </mxCell>
        <mxCell id="PYnlJR85cqrQ8jzhMH3u-0" value="open APP" style="rounded=1;whiteSpace=wrap;html=1;" parent="WIyWlLk6GJQsqaUBKTNV-1" vertex="1">
          <mxGeometry x="80" y="1260" width="120" height="60" as="geometry" />
        </mxCell>
        <mxCell id="PYnlJR85cqrQ8jzhMH3u-22" style="edgeStyle=orthogonalEdgeStyle;rounded=0;orthogonalLoop=1;jettySize=auto;html=1;entryX=0;entryY=0.5;entryDx=0;entryDy=0;" parent="WIyWlLk6GJQsqaUBKTNV-1" source="PYnlJR85cqrQ8jzhMH3u-1" target="PYnlJR85cqrQ8jzhMH3u-26" edge="1">
          <mxGeometry relative="1" as="geometry">
            <mxPoint x="475" y="1450" as="targetPoint" />
          </mxGeometry>
        </mxCell>
        <mxCell id="PYnlJR85cqrQ8jzhMH3u-36" style="edgeStyle=orthogonalEdgeStyle;rounded=0;orthogonalLoop=1;jettySize=auto;html=1;" parent="WIyWlLk6GJQsqaUBKTNV-1" source="PYnlJR85cqrQ8jzhMH3u-1" target="PYnlJR85cqrQ8jzhMH3u-28" edge="1">
          <mxGeometry relative="1" as="geometry" />
        </mxCell>
        <mxCell id="PYnlJR85cqrQ8jzhMH3u-1" value="display Wallet List" style="ellipse;whiteSpace=wrap;html=1;fillColor=#99CCFF;" parent="WIyWlLk6GJQsqaUBKTNV-1" vertex="1">
          <mxGeometry x="150" y="1410" width="120" height="80" as="geometry" />
        </mxCell>
        <mxCell id="PYnlJR85cqrQ8jzhMH3u-21" style="edgeStyle=orthogonalEdgeStyle;rounded=0;orthogonalLoop=1;jettySize=auto;html=1;entryX=-0.005;entryY=0.548;entryDx=0;entryDy=0;entryPerimeter=0;" parent="WIyWlLk6GJQsqaUBKTNV-1" source="PYnlJR85cqrQ8jzhMH3u-2" target="PYnlJR85cqrQ8jzhMH3u-14" edge="1">
          <mxGeometry relative="1" as="geometry" />
        </mxCell>
        <mxCell id="PYnlJR85cqrQ8jzhMH3u-2" value="open Wallet" style="rounded=1;whiteSpace=wrap;html=1;" parent="WIyWlLk6GJQsqaUBKTNV-1" vertex="1">
          <mxGeometry x="150" y="1745" width="120" height="60" as="geometry" />
        </mxCell>
        <mxCell id="PYnlJR85cqrQ8jzhMH3u-5" value="primaryCard" style="shape=process;whiteSpace=wrap;html=1;backgroundOutline=1;fillColor=#FFCCCC;" parent="WIyWlLk6GJQsqaUBKTNV-1" vertex="1">
          <mxGeometry x="400" y="1680" width="120" height="60" as="geometry" />
        </mxCell>
        <mxCell id="PYnlJR85cqrQ8jzhMH3u-6" value="altCard" style="shape=process;whiteSpace=wrap;html=1;backgroundOutline=1;" parent="WIyWlLk6GJQsqaUBKTNV-1" vertex="1">
          <mxGeometry x="410" y="1760" width="120" height="30" as="geometry" />
        </mxCell>
        <mxCell id="PYnlJR85cqrQ8jzhMH3u-7" value="altCard" style="shape=process;whiteSpace=wrap;html=1;backgroundOutline=1;fillColor=#FFB366;" parent="WIyWlLk6GJQsqaUBKTNV-1" vertex="1">
          <mxGeometry x="410" y="1730" width="120" height="30" as="geometry" />
        </mxCell>
        <mxCell id="PYnlJR85cqrQ8jzhMH3u-8" value="altCard" style="shape=process;whiteSpace=wrap;html=1;backgroundOutline=1;" parent="WIyWlLk6GJQsqaUBKTNV-1" vertex="1">
          <mxGeometry x="410" y="1820" width="120" height="30" as="geometry" />
        </mxCell>
        <mxCell id="PYnlJR85cqrQ8jzhMH3u-9" value="altCard" style="shape=process;whiteSpace=wrap;html=1;backgroundOutline=1;" parent="WIyWlLk6GJQsqaUBKTNV-1" vertex="1">
          <mxGeometry x="410" y="1790" width="120" height="30" as="geometry" />
        </mxCell>
        <mxCell id="PYnlJR85cqrQ8jzhMH3u-18" style="edgeStyle=orthogonalEdgeStyle;rounded=0;orthogonalLoop=1;jettySize=auto;html=1;" parent="WIyWlLk6GJQsqaUBKTNV-1" source="PYnlJR85cqrQ8jzhMH3u-10" target="PYnlJR85cqrQ8jzhMH3u-17" edge="1">
          <mxGeometry relative="1" as="geometry" />
        </mxCell>
        <mxCell id="PYnlJR85cqrQ8jzhMH3u-19" value="&lt;div&gt;select&lt;/div&gt;&lt;div&gt;upto 6&lt;/div&gt;&lt;div&gt;altCard&lt;/div&gt;" style="edgeLabel;html=1;align=center;verticalAlign=middle;resizable=0;points=[];" parent="PYnlJR85cqrQ8jzhMH3u-18" vertex="1" connectable="0">
          <mxGeometry x="0.2667" y="1" relative="1" as="geometry">
            <mxPoint as="offset" />
          </mxGeometry>
        </mxCell>
        <mxCell id="PYnlJR85cqrQ8jzhMH3u-10" value="&lt;div&gt;set &lt;br&gt;&lt;/div&gt;&lt;div&gt;altCard&lt;/div&gt;" style="shape=step;perimeter=stepPerimeter;whiteSpace=wrap;html=1;fixedSize=1;" parent="WIyWlLk6GJQsqaUBKTNV-1" vertex="1">
          <mxGeometry x="645" y="1470" width="120" height="50" as="geometry" />
        </mxCell>
        <mxCell id="PYnlJR85cqrQ8jzhMH3u-16" style="edgeStyle=orthogonalEdgeStyle;rounded=0;orthogonalLoop=1;jettySize=auto;html=1;" parent="WIyWlLk6GJQsqaUBKTNV-1" source="PYnlJR85cqrQ8jzhMH3u-11" target="PYnlJR85cqrQ8jzhMH3u-15" edge="1">
          <mxGeometry relative="1" as="geometry" />
        </mxCell>
        <mxCell id="PYnlJR85cqrQ8jzhMH3u-11" value="&lt;div&gt;set &lt;br&gt;&lt;/div&gt;&lt;div&gt;primaryCard&lt;/div&gt;" style="shape=step;perimeter=stepPerimeter;whiteSpace=wrap;html=1;fixedSize=1;" parent="WIyWlLk6GJQsqaUBKTNV-1" vertex="1">
          <mxGeometry x="525" y="1470" width="120" height="50" as="geometry" />
        </mxCell>
        <mxCell id="PYnlJR85cqrQ8jzhMH3u-12" value="&lt;div&gt;set &lt;br&gt;&lt;/div&gt;&lt;div&gt;walletName&lt;/div&gt;" style="shape=step;perimeter=stepPerimeter;whiteSpace=wrap;html=1;fixedSize=1;" parent="WIyWlLk6GJQsqaUBKTNV-1" vertex="1">
          <mxGeometry x="765" y="1470" width="120" height="50" as="geometry" />
        </mxCell>
        <mxCell id="PYnlJR85cqrQ8jzhMH3u-23" style="edgeStyle=orthogonalEdgeStyle;rounded=0;orthogonalLoop=1;jettySize=auto;html=1;entryX=0.5;entryY=0;entryDx=0;entryDy=0;exitX=1;exitY=0.5;exitDx=0;exitDy=0;" parent="WIyWlLk6GJQsqaUBKTNV-1" source="PYnlJR85cqrQ8jzhMH3u-13" target="PYnlJR85cqrQ8jzhMH3u-1" edge="1">
          <mxGeometry relative="1" as="geometry" />
        </mxCell>
        <mxCell id="PYnlJR85cqrQ8jzhMH3u-24" value="confirm New walletCard" style="edgeLabel;html=1;align=center;verticalAlign=middle;resizable=0;points=[];" parent="PYnlJR85cqrQ8jzhMH3u-23" vertex="1" connectable="0">
          <mxGeometry x="0.0979" relative="1" as="geometry">
            <mxPoint as="offset" />
          </mxGeometry>
        </mxCell>
        <mxCell id="PYnlJR85cqrQ8jzhMH3u-13" value="&lt;div&gt;set &lt;br&gt;&lt;/div&gt;&lt;div&gt;walletColor&lt;/div&gt;" style="shape=step;perimeter=stepPerimeter;whiteSpace=wrap;html=1;fixedSize=1;" parent="WIyWlLk6GJQsqaUBKTNV-1" vertex="1">
          <mxGeometry x="885" y="1470" width="120" height="50" as="geometry" />
        </mxCell>
        <mxCell id="PYnlJR85cqrQ8jzhMH3u-15" value="&lt;div&gt;- countryFlag&lt;/div&gt;&lt;div&gt;- countryName&lt;/div&gt;&lt;div&gt;- currencyCode&lt;/div&gt;" style="text;html=1;strokeColor=none;fillColor=none;align=left;verticalAlign=middle;whiteSpace=wrap;rounded=0;" parent="WIyWlLk6GJQsqaUBKTNV-1" vertex="1">
          <mxGeometry x="535" y="1570" width="100" height="60" as="geometry" />
        </mxCell>
        <mxCell id="PYnlJR85cqrQ8jzhMH3u-17" value="&lt;div&gt;- countryFlag&lt;/div&gt;&lt;div&gt;- countryName&lt;/div&gt;&lt;div&gt;- currencyCode&lt;/div&gt;" style="text;html=1;strokeColor=none;fillColor=none;align=left;verticalAlign=middle;whiteSpace=wrap;rounded=0;" parent="WIyWlLk6GJQsqaUBKTNV-1" vertex="1">
          <mxGeometry x="655" y="1650" width="100" height="60" as="geometry" />
        </mxCell>
        <mxCell id="PYnlJR85cqrQ8jzhMH3u-33" value="" style="group" parent="WIyWlLk6GJQsqaUBKTNV-1" vertex="1" connectable="0">
          <mxGeometry x="150" y="1550" width="120" height="120" as="geometry" />
        </mxCell>
        <mxCell id="PYnlJR85cqrQ8jzhMH3u-28" value="walletListCard" style="shape=process;whiteSpace=wrap;html=1;backgroundOutline=1;fillColor=#B4FFA8;align=center;" parent="PYnlJR85cqrQ8jzhMH3u-33" vertex="1">
          <mxGeometry width="120" height="30" as="geometry" />
        </mxCell>
        <mxCell id="PYnlJR85cqrQ8jzhMH3u-30" value="walletListCard" style="shape=process;whiteSpace=wrap;html=1;backgroundOutline=1;fillColor=#FFFFFF;align=center;" parent="PYnlJR85cqrQ8jzhMH3u-33" vertex="1">
          <mxGeometry y="30" width="120" height="30" as="geometry" />
        </mxCell>
        <mxCell id="PYnlJR85cqrQ8jzhMH3u-31" value="walletListCard" style="shape=process;whiteSpace=wrap;html=1;backgroundOutline=1;fillColor=#FFFFFF;align=center;" parent="PYnlJR85cqrQ8jzhMH3u-33" vertex="1">
          <mxGeometry y="60" width="120" height="30" as="geometry" />
        </mxCell>
        <mxCell id="PYnlJR85cqrQ8jzhMH3u-32" value="walletListCard" style="shape=process;whiteSpace=wrap;html=1;backgroundOutline=1;fillColor=#FFFFFF;align=center;" parent="PYnlJR85cqrQ8jzhMH3u-33" vertex="1">
          <mxGeometry y="90" width="120" height="30" as="geometry" />
        </mxCell>
        <mxCell id="PYnlJR85cqrQ8jzhMH3u-35" style="edgeStyle=orthogonalEdgeStyle;rounded=0;orthogonalLoop=1;jettySize=auto;html=1;entryX=0.5;entryY=0;entryDx=0;entryDy=0;" parent="WIyWlLk6GJQsqaUBKTNV-1" source="PYnlJR85cqrQ8jzhMH3u-32" target="PYnlJR85cqrQ8jzhMH3u-2" edge="1">
          <mxGeometry relative="1" as="geometry" />
        </mxCell>
        <mxCell id="RpjYzm1VdP1euKCkJrFf-4" value="main.dart" style="shape=document;whiteSpace=wrap;html=1;boundedLbl=1;" vertex="1" parent="WIyWlLk6GJQsqaUBKTNV-1">
          <mxGeometry x="50" y="2379.9999999999995" width="120" height="80" as="geometry" />
        </mxCell>
        <mxCell id="RpjYzm1VdP1euKCkJrFf-5" value="home" style="rounded=1;whiteSpace=wrap;html=1;" vertex="1" parent="WIyWlLk6GJQsqaUBKTNV-1">
          <mxGeometry x="245" y="2510" width="120" height="60" as="geometry" />
        </mxCell>
        <mxCell id="RpjYzm1VdP1euKCkJrFf-6" value="&lt;div&gt;floatingAction&lt;/div&gt;&lt;div&gt;button&lt;br&gt;&lt;/div&gt;" style="ellipse;whiteSpace=wrap;html=1;" vertex="1" parent="WIyWlLk6GJQsqaUBKTNV-1">
          <mxGeometry x="460" y="2550" width="120" height="80" as="geometry" />
        </mxCell>
        <mxCell id="RpjYzm1VdP1euKCkJrFf-7" value="appBar" style="ellipse;whiteSpace=wrap;html=1;" vertex="1" parent="WIyWlLk6GJQsqaUBKTNV-1">
          <mxGeometry x="345" y="2550" width="120" height="80" as="geometry" />
        </mxCell>
        <mxCell id="RpjYzm1VdP1euKCkJrFf-9" value="WalletScreen" style="rounded=1;whiteSpace=wrap;html=1;" vertex="1" parent="WIyWlLk6GJQsqaUBKTNV-1">
          <mxGeometry x="240" y="2780" width="120" height="60" as="geometry" />
        </mxCell>
        <mxCell id="RpjYzm1VdP1euKCkJrFf-10" value="appBar" style="ellipse;whiteSpace=wrap;html=1;" vertex="1" parent="WIyWlLk6GJQsqaUBKTNV-1">
          <mxGeometry x="365" y="2770" width="120" height="80" as="geometry" />
        </mxCell>
        <mxCell id="RpjYzm1VdP1euKCkJrFf-11" value="WalletCard" style="ellipse;whiteSpace=wrap;html=1;" vertex="1" parent="WIyWlLk6GJQsqaUBKTNV-1">
          <mxGeometry x="510" y="2970" width="120" height="80" as="geometry" />
        </mxCell>
        <mxCell id="RpjYzm1VdP1euKCkJrFf-12" value="WalletCard" style="ellipse;whiteSpace=wrap;html=1;" vertex="1" parent="WIyWlLk6GJQsqaUBKTNV-1">
          <mxGeometry x="990" y="2770" width="120" height="80" as="geometry" />
        </mxCell>
        <mxCell id="RpjYzm1VdP1euKCkJrFf-13" value="PrimaryCard" style="ellipse;whiteSpace=wrap;html=1;" vertex="1" parent="WIyWlLk6GJQsqaUBKTNV-1">
          <mxGeometry x="1190" y="2810" width="120" height="80" as="geometry" />
        </mxCell>
        <mxCell id="RpjYzm1VdP1euKCkJrFf-15" value="AltCard" style="ellipse;whiteSpace=wrap;html=1;" vertex="1" parent="WIyWlLk6GJQsqaUBKTNV-1">
          <mxGeometry x="1010" y="2970" width="120" height="80" as="geometry" />
        </mxCell>
        <mxCell id="RpjYzm1VdP1euKCkJrFf-17" value="AltCard" style="ellipse;whiteSpace=wrap;html=1;" vertex="1" parent="WIyWlLk6GJQsqaUBKTNV-1">
          <mxGeometry x="1130" y="2970" width="120" height="80" as="geometry" />
        </mxCell>
        <mxCell id="RpjYzm1VdP1euKCkJrFf-18" value="AltCard" style="ellipse;whiteSpace=wrap;html=1;" vertex="1" parent="WIyWlLk6GJQsqaUBKTNV-1">
          <mxGeometry x="1250" y="2970" width="120" height="80" as="geometry" />
        </mxCell>
        <mxCell id="RpjYzm1VdP1euKCkJrFf-19" value="AltCard" style="ellipse;whiteSpace=wrap;html=1;" vertex="1" parent="WIyWlLk6GJQsqaUBKTNV-1">
          <mxGeometry x="1370" y="2970" width="120" height="80" as="geometry" />
        </mxCell>
        <mxCell id="RpjYzm1VdP1euKCkJrFf-20" value="WalletCard" style="ellipse;whiteSpace=wrap;html=1;" vertex="1" parent="WIyWlLk6GJQsqaUBKTNV-1">
          <mxGeometry x="390" y="2970" width="120" height="80" as="geometry" />
        </mxCell>
        <mxCell id="RpjYzm1VdP1euKCkJrFf-21" value="WalletCard" style="ellipse;whiteSpace=wrap;html=1;" vertex="1" parent="WIyWlLk6GJQsqaUBKTNV-1">
          <mxGeometry x="270" y="2970" width="120" height="80" as="geometry" />
        </mxCell>
        <mxCell id="RpjYzm1VdP1euKCkJrFf-25" value="&lt;div&gt;floatingAction&lt;/div&gt;&lt;div&gt;button&lt;br&gt;&lt;/div&gt;" style="ellipse;whiteSpace=wrap;html=1;" vertex="1" parent="WIyWlLk6GJQsqaUBKTNV-1">
          <mxGeometry x="490" y="2770" width="120" height="80" as="geometry" />
        </mxCell>
        <mxCell id="RpjYzm1VdP1euKCkJrFf-26" value="" style="endArrow=classic;html=1;rounded=0;exitX=1;exitY=0.5;exitDx=0;exitDy=0;entryX=0;entryY=0.5;entryDx=0;entryDy=0;" edge="1" parent="WIyWlLk6GJQsqaUBKTNV-1" source="RpjYzm1VdP1euKCkJrFf-11" target="RpjYzm1VdP1euKCkJrFf-12">
          <mxGeometry width="50" height="50" relative="1" as="geometry">
            <mxPoint x="860" y="2930" as="sourcePoint" />
            <mxPoint x="910" y="2880" as="targetPoint" />
          </mxGeometry>
        </mxCell>
        <mxCell id="RpjYzm1VdP1euKCkJrFf-27" value="&lt;h1&gt;Wallet_Card&lt;/h1&gt;&lt;ul&gt;&lt;li&gt;Wallet Name&lt;/li&gt;&lt;li&gt;Location&lt;/li&gt;&lt;li&gt;WalletColor&lt;/li&gt;&lt;/ul&gt;&lt;p&gt;&lt;br&gt;&lt;/p&gt;" style="text;html=1;strokeColor=none;fillColor=none;spacing=5;spacingTop=-20;whiteSpace=wrap;overflow=hidden;rounded=0;" vertex="1" parent="WIyWlLk6GJQsqaUBKTNV-1">
          <mxGeometry x="930" y="3100" width="190" height="120" as="geometry" />
        </mxCell>
        <mxCell id="RpjYzm1VdP1euKCkJrFf-28" value="&lt;h1&gt;Primary_Card&lt;/h1&gt;&lt;ul&gt;&lt;li&gt;Primary Currency&lt;br&gt;&lt;/li&gt;&lt;li&gt;Primary Flag&lt;br&gt;&lt;/li&gt;&lt;li&gt;isoCurrencyCode&lt;/li&gt;&lt;li&gt;Currency Name&lt;/li&gt;&lt;li&gt;Value Input&lt;br&gt;&lt;/li&gt;&lt;/ul&gt;&lt;p&gt;&lt;br&gt;&lt;/p&gt;" style="text;html=1;strokeColor=none;fillColor=none;spacing=5;spacingTop=-20;whiteSpace=wrap;overflow=hidden;rounded=0;" vertex="1" parent="WIyWlLk6GJQsqaUBKTNV-1">
          <mxGeometry x="1130" y="3100" width="190" height="140" as="geometry" />
        </mxCell>
        <mxCell id="RpjYzm1VdP1euKCkJrFf-29" value="&lt;h1&gt;Alt_Card&lt;/h1&gt;&lt;ul&gt;&lt;li&gt;Alt Currency&lt;br&gt;&lt;/li&gt;&lt;li&gt;Alt Flag&lt;br&gt;&lt;/li&gt;&lt;li&gt;isoCurrencyCode&lt;/li&gt;&lt;li&gt;Currency Name&lt;/li&gt;&lt;li&gt;Value Output&lt;/li&gt;&lt;/ul&gt;&lt;p&gt;&lt;br&gt;&lt;/p&gt;" style="text;html=1;strokeColor=none;fillColor=none;spacing=5;spacingTop=-20;whiteSpace=wrap;overflow=hidden;rounded=0;" vertex="1" parent="WIyWlLk6GJQsqaUBKTNV-1">
          <mxGeometry x="1360" y="3100" width="190" height="140" as="geometry" />
        </mxCell>
      </root>
    </mxGraphModel>
  </diagram>
</mxfile>
